<?xml version="1.0" encoding="UTF-8" standalone="no"?>
<svg
   width="2048"
   height="2048"
   viewBox="0 0 2048 2048"
   version="1.1"
   xml:space="preserve"
   style="clip-rule:evenodd;fill-rule:evenodd;stroke-linecap:round;stroke-linejoin:round;stroke-miterlimit:1.5"
   id="svg46"
   sodipodi:docname="Grid_01.svg"
   inkscape:version="1.3 (0e150ed6c4, 2023-07-21)"
   xmlns:inkscape="http://www.inkscape.org/namespaces/inkscape"
   xmlns:sodipodi="http://sodipodi.sourceforge.net/DTD/sodipodi-0.dtd"
   xmlns="http://www.w3.org/2000/svg"
   xmlns:svg="http://www.w3.org/2000/svg"
   xmlns:serif="http://www.serif.com/"><defs
   id="defs46" /><sodipodi:namedview
   id="namedview46"
   pagecolor="#ffffff"
   bordercolor="#999999"
   borderopacity="1"
   inkscape:showpageshadow="2"
   inkscape:pageopacity="0"
   inkscape:pagecheckerboard="0"
   inkscape:deskcolor="#1e1e1e"
   inkscape:zoom="0.28637695"
   inkscape:cx="230.46548"
   inkscape:cy="962.01877"
   inkscape:window-width="2560"
   inkscape:window-height="1369"
   inkscape:window-x="1912"
   inkscape:window-y="-8"
   inkscape:window-maximized="1"
   inkscape:current-layer="svg46" />&#10;    <rect
   id="Artboard1"
   x="0"
   y="0"
   width="2048"
   height="2048"
   style="fill:#ffffff" />&#10;    <clipPath
   id="_clip1">&#10;        <rect
   id="Artboard11"
   serif:id="Artboard1"
   x="0"
   y="0"
   width="2048"
   height="2048" />&#10;    </clipPath>&#10;    <g
   clip-path="url(#_clip1)"
   id="g46">&#10;        <g
   transform="translate(-528.5,-676.5)"
   id="g1">&#10;            <circle
   cx="528.5"
   cy="676.5"
   r="108.5"
   style="stroke:#000000;stroke-width:1px"
   id="circle1" />&#10;        </g>&#10;        <g
   transform="translate(-528.5,1371.5)"
   id="g2">&#10;            <circle
   cx="528.5"
   cy="676.5"
   r="108.5"
   style="stroke:#000000;stroke-width:1px"
   id="circle2" />&#10;        </g>&#10;        <g
   transform="translate(1519.5,-676.5)"
   id="g3">&#10;            <circle
   cx="528.5"
   cy="676.5"
   r="108.5"
   style="stroke:#000000;stroke-width:1px"
   id="circle3" />&#10;        </g>&#10;        <g
   transform="translate(1519.5,1371.5)"
   id="g4">&#10;            <circle
   cx="528.5"
   cy="676.5"
   r="108.5"
   style="stroke:#000000;stroke-width:1px"
   id="circle4" />&#10;        </g>&#10;        <g
   transform="translate(495.5,347.5)"
   id="g5">&#10;            <circle
   cx="528.5"
   cy="676.5"
   r="108.5"
   style="stroke:#000000;stroke-width:1px"
   id="circle5" />&#10;        </g>&#10;        <g
   transform="matrix(0.345622,0,0,0.345622,1349.84,790.187)"
   id="g6">&#10;            <circle
   cx="528.5"
   cy="676.5"
   r="108.5"
   style="fill-opacity:0.3;stroke:#000000;stroke-width:2.89px"
   id="circle6" />&#10;        </g>&#10;        <g
   transform="matrix(0.345622,0,0,0.345622,1865.34,790.187)"
   id="g7">&#10;            <circle
   cx="528.5"
   cy="676.5"
   r="108.5"
   style="fill-opacity:0.3;stroke:#000000;stroke-width:2.89px"
   id="circle7" />&#10;        </g>&#10;        <g
   transform="matrix(0.345622,0,0,0.345622,841.339,790.187)"
   id="g8">&#10;            <circle
   cx="528.5"
   cy="676.5"
   r="108.5"
   style="fill-opacity:0.3;stroke:#000000;stroke-width:2.89px"
   id="circle8" />&#10;        </g>&#10;        <g
   transform="matrix(0.345622,0,0,0.345622,332.839,788.687)"
   id="g9">&#10;            <circle
   cx="528.5"
   cy="676.5"
   r="108.5"
   style="fill-opacity:0.3;stroke:#000000;stroke-width:2.89px"
   id="circle9" />&#10;        </g>&#10;        <g
   transform="matrix(0.345622,0,0,0.345622,-182.661,788.687)"
   id="g10">&#10;            <circle
   cx="528.5"
   cy="676.5"
   r="108.5"
   style="fill-opacity:0.3;stroke:#000000;stroke-width:2.89px"
   id="circle10" />&#10;        </g>&#10;        <g
   transform="matrix(0.345622,0,0,0.345622,1349.84,1298.69)"
   id="g11">&#10;            <circle
   cx="528.5"
   cy="676.5"
   r="108.5"
   style="fill-opacity:0.3;stroke:#000000;stroke-width:2.89px"
   id="circle11" />&#10;        </g>&#10;        <g
   transform="matrix(0.345622,0,0,0.345622,1865.34,1298.69)"
   id="g12">&#10;            <circle
   cx="528.5"
   cy="676.5"
   r="108.5"
   style="fill-opacity:0.3;stroke:#000000;stroke-width:2.89px"
   id="circle12" />&#10;        </g>&#10;        <g
   transform="matrix(0.345622,0,0,0.345622,841.339,1298.69)"
   id="g13">&#10;            <circle
   cx="528.5"
   cy="676.5"
   r="108.5"
   style="fill-opacity:0.3;stroke:#000000;stroke-width:2.89px"
   id="circle13" />&#10;        </g>&#10;        <g
   transform="matrix(0.345622,0,0,0.345622,332.839,1297.19)"
   id="g14">&#10;            <circle
   cx="528.5"
   cy="676.5"
   r="108.5"
   style="fill-opacity:0.3;stroke:#000000;stroke-width:2.89px"
   id="circle14" />&#10;        </g>&#10;        <g
   transform="matrix(0.345622,0,0,0.345622,-182.661,1297.19)"
   id="g15">&#10;            <circle
   cx="528.5"
   cy="676.5"
   r="108.5"
   style="fill-opacity:0.3;stroke:#000000;stroke-width:2.89px"
   id="circle15" />&#10;        </g>&#10;        <g
   transform="matrix(0.345622,0,0,0.345622,1349.84,1814.19)"
   id="g16">&#10;            <circle
   cx="528.5"
   cy="676.5"
   r="108.5"
   style="fill-opacity:0.3;stroke:#000000;stroke-width:2.89px"
   id="circle16" />&#10;        </g>&#10;        <g
   transform="matrix(0.345622,0,0,0.345622,1865.34,1814.19)"
   id="g17">&#10;            <circle
   cx="528.5"
   cy="676.5"
   r="108.5"
   style="fill-opacity:0.3;stroke:#000000;stroke-width:2.89px"
   id="circle17" />&#10;        </g>&#10;        <g
   transform="matrix(0.345622,0,0,0.345622,841.339,1814.19)"
   id="g18">&#10;            <circle
   cx="528.5"
   cy="676.5"
   r="108.5"
   style="fill-opacity:0.3;stroke:#000000;stroke-width:2.89px"
   id="circle18" />&#10;        </g>&#10;        <g
   transform="matrix(0.345622,0,0,0.345622,332.839,1812.69)"
   id="g19">&#10;            <circle
   cx="528.5"
   cy="676.5"
   r="108.5"
   style="fill-opacity:0.3;stroke:#000000;stroke-width:2.89px"
   id="circle19" />&#10;        </g>&#10;        <g
   transform="matrix(0.345622,0,0,0.345622,-182.661,1812.69)"
   id="g20">&#10;            <circle
   cx="528.5"
   cy="676.5"
   r="108.5"
   style="fill-opacity:0.3;stroke:#000000;stroke-width:2.89px"
   id="circle20" />&#10;        </g>&#10;        <g
   transform="matrix(0.345622,0,0,0.345622,1349.84,281.687)"
   id="g21">&#10;            <circle
   cx="528.5"
   cy="676.5"
   r="108.5"
   style="fill-opacity:0.3;stroke:#000000;stroke-width:2.89px"
   id="circle21" />&#10;        </g>&#10;        <g
   transform="matrix(0.345622,0,0,0.345622,1865.34,281.687)"
   id="g22">&#10;            <circle
   cx="528.5"
   cy="676.5"
   r="108.5"
   style="fill-opacity:0.3;stroke:#000000;stroke-width:2.89px"
   id="circle22" />&#10;        </g>&#10;        <g
   transform="matrix(0.345622,0,0,0.345622,841.339,281.687)"
   id="g23">&#10;            <circle
   cx="528.5"
   cy="676.5"
   r="108.5"
   style="fill-opacity:0.3;stroke:#000000;stroke-width:2.89px"
   id="circle23" />&#10;        </g>&#10;        <g
   transform="matrix(0.345622,0,0,0.345622,332.839,280.187)"
   id="g24">&#10;            <circle
   cx="528.5"
   cy="676.5"
   r="108.5"
   style="fill-opacity:0.3;stroke:#000000;stroke-width:2.89px"
   id="circle24" />&#10;        </g>&#10;        <g
   transform="matrix(0.345622,0,0,0.345622,-182.661,280.187)"
   id="g25">&#10;            <circle
   cx="528.5"
   cy="676.5"
   r="108.5"
   style="fill-opacity:0.3;stroke:#000000;stroke-width:2.89px"
   id="circle25" />&#10;        </g>&#10;        <g
   transform="matrix(0.345622,0,0,0.345622,1349.84,-233.813)"
   id="g26">&#10;            <circle
   cx="528.5"
   cy="676.5"
   r="108.5"
   style="fill-opacity:0.3;stroke:#000000;stroke-width:2.89px"
   id="circle26" />&#10;        </g>&#10;        <g
   transform="matrix(0.345622,0,0,0.345622,1865.34,-233.813)"
   id="g27">&#10;            <circle
   cx="528.5"
   cy="676.5"
   r="108.5"
   style="fill-opacity:0.3;stroke:#000000;stroke-width:2.89px"
   id="circle27" />&#10;        </g>&#10;        <g
   transform="matrix(0.345622,0,0,0.345622,841.339,-233.813)"
   id="g28">&#10;            <circle
   cx="528.5"
   cy="676.5"
   r="108.5"
   style="fill-opacity:0.3;stroke:#000000;stroke-width:2.89px"
   id="circle28" />&#10;        </g>&#10;        <g
   transform="matrix(0.345622,0,0,0.345622,332.839,-235.313)"
   id="g29">&#10;            <circle
   cx="528.5"
   cy="676.5"
   r="108.5"
   style="fill-opacity:0.3;stroke:#000000;stroke-width:2.89px"
   id="circle29" />&#10;        </g>&#10;        <g
   transform="matrix(0.345622,0,0,0.345622,-182.661,-235.313)"
   id="g30">&#10;            <circle
   cx="528.5"
   cy="676.5"
   r="108.5"
   style="fill-opacity:0.3;stroke:#000000;stroke-width:2.89px"
   id="circle30" />&#10;        </g>&#10;        <g
   id="g35">&#10;            <g
   transform="matrix(1,0,0,1.63448,-1383,-827.045)"
   id="g31">&#10;                <rect
   x="1369"
   y="506"
   width="28"
   height="1253"
   style="stroke:#000000;stroke-width:0.74px"
   id="rect30" />&#10;            </g>&#10;            <g
   transform="matrix(0,1,-1.63448,0,2875.05,-1383)"
   id="g32">&#10;                <rect
   x="1369"
   y="506"
   width="28"
   height="1253"
   style="stroke:#000000;stroke-width:0.74px"
   id="rect31" />&#10;            </g>&#10;            <g
   transform="matrix(1,0,0,1.63448,665,-827.045)"
   id="g33">&#10;                <rect
   x="1369"
   y="506"
   width="28"
   height="1253"
   style="stroke:#000000;stroke-width:0.74px"
   id="rect32" />&#10;            </g>&#10;            <g
   transform="matrix(0,1,-1.63448,0,2875.05,665)"
   id="g34">&#10;                <rect
   x="1369"
   y="506"
   width="28"
   height="1253"
   style="stroke:#000000;stroke-width:0.74px"
   id="rect33" />&#10;            </g>&#10;        </g>&#10;        <g
   transform="matrix(0,0.5,-1.63448,0,2875.05,-684.5)"
   id="g36">&#10;            <rect
   x="1369"
   y="506"
   width="28"
   height="1253"
   style="fill-opacity:0.29;stroke:#000000;stroke-width:0.83px"
   id="rect35" />&#10;        </g>&#10;        <g
   transform="matrix(-0.5,0,0,-1.63448,2732.5,2875.05)"
   id="g37">&#10;            <rect
   x="1369"
   y="506"
   width="28"
   height="1253"
   style="fill-opacity:0.29;stroke:#000000;stroke-width:0.83px"
   id="rect36" />&#10;        </g>&#10;        <g
   transform="matrix(0,0.5,-1.63448,0,2875.05,-176)"
   id="g38">&#10;            <rect
   x="1369"
   y="506"
   width="28"
   height="1253"
   style="fill-opacity:0.29;stroke:#000000;stroke-width:0.83px"
   id="rect37" />&#10;        </g>&#10;        <g
   transform="matrix(-0.5,0,0,-1.63448,2224,2875.05)"
   id="g39">&#10;            <rect
   x="1369"
   y="506"
   width="28"
   height="1253"
   style="fill-opacity:0.29;stroke:#000000;stroke-width:0.83px"
   id="rect38" />&#10;        </g>&#10;        <g
   transform="matrix(0,0.5,-1.63448,0,2875.05,332.5)"
   id="g40">&#10;            <rect
   x="1369"
   y="506"
   width="28"
   height="1253"
   style="fill-opacity:0.29;stroke:#000000;stroke-width:0.83px"
   id="rect39" />&#10;        </g>&#10;        <g
   transform="matrix(-0.5,0,0,-1.63448,1715.5,2875.05)"
   id="g41">&#10;            <rect
   x="1369"
   y="506"
   width="28"
   height="1253"
   style="fill-opacity:0.29;stroke:#000000;stroke-width:0.83px"
   id="rect40" />&#10;        </g>&#10;        <g
   transform="matrix(0,0.5,-1.63448,0,2875.05,841)"
   id="g42">&#10;            <rect
   x="1369"
   y="506"
   width="28"
   height="1253"
   style="fill-opacity:0.29;stroke:#000000;stroke-width:0.83px"
   id="rect41" />&#10;        </g>&#10;        <g
   transform="matrix(-0.5,0,0,-1.63448,1207,2875.05)"
   id="g43">&#10;            <rect
   x="1369"
   y="506"
   width="28"
   height="1253"
   style="fill-opacity:0.3;stroke:#000000;stroke-width:0.83px"
   id="rect42" />&#10;        </g>&#10;        <g
   transform="matrix(0,0.5,-1.63448,0,2875.05,1349.5)"
   id="g44">&#10;            <rect
   x="1369"
   y="506"
   width="28"
   height="1253"
   style="fill-opacity:0.29;stroke:#000000;stroke-width:0.83px"
   id="rect43" />&#10;        </g>&#10;        <g
   transform="matrix(-0.5,0,0,-1.63448,698.5,2875.05)"
   id="g45">&#10;            <rect
   x="1369"
   y="506"
   width="28"
   height="1253"
   style="fill-opacity:0.29;stroke:#000000;stroke-width:0.83px"
   id="rect44" />&#10;        </g>&#10;    </g>&#10;</svg>
